<?xml version="1.0" encoding="utf-8"?>
<!-- Generator: Adobe Illustrator 18.0.0, SVG Export Plug-In . SVG Version: 6.00 Build 0)  -->
<!DOCTYPE svg PUBLIC "-//W3C//DTD SVG 1.1//EN" "http://www.w3.org/Graphics/SVG/1.1/DTD/svg11.dtd">
<svg version="1.1" id="Layer_1" xmlns="http://www.w3.org/2000/svg" xmlns:xlink="http://www.w3.org/1999/xlink" x="0px" y="0px"
	 width="39.6px" height="35.9px" viewBox="0 0 39.6 35.9" enable-background="new 0 0 39.6 35.9" xml:space="preserve">
<g>
	<path fill="#0B0F19" d="M15,11.3c0-2.1,0-4.1,0-6.2c0-1.7,0.5-3.2,2.1-4.1c0.8-0.5,1.8-0.9,2.7-0.9C24.8,0,29.8,0,34.9,0
		c2.7,0,4.6,2,4.6,4.7c0,3.7,0,7.4,0,11.1c0,2.7-2,4.7-4.8,4.7c-4.3,0-8.5,0-12.8,0c-0.7,0-1.2,0.2-1.6,0.7c-1.1,1-2.2,2.1-3.3,3
		c-0.3,0.3-1,0.5-1.3,0.3c-0.3-0.2-0.6-0.8-0.6-1.2c-0.1-3,0-5.9,0-8.9c0-0.3,0-0.6,0-1.1c-0.3,0-0.6,0-0.9,0c-3,0-5.9,0-8.9,0
		c-2.2,0-3.3,1.1-3.3,3.3c0,3.4,0,6.8,0,10.1c0,2.1,1.1,3.1,3.2,3.2c4.4,0,8.8,0,13.2,0c0.6,0,1.2,0.3,1.6,0.6
		c0.9,0.7,1.6,1.4,2.5,2.3c0-0.4,0.1-0.6,0.1-0.9c0-2.6,0-5.1,0-7.7c0-0.3,0-0.5,0-0.8c0-0.6,0.4-1,1-0.9c0.4,0.1,0.8,0.5,0.9,0.9
		c0.2,0.5,0.1,1.1,0.1,1.7c0,3.1,0,6.2,0,9.3c0,0.5-0.3,1.2-0.6,1.4c-0.4,0.1-1-0.2-1.4-0.5c-1.2-1-2.2-2-3.4-3
		c-0.3-0.3-0.9-0.5-1.3-0.5c-4.2,0-8.3-0.1-12.5,0c-3.3,0.1-5.4-2.5-5.3-5.3c0.1-3.3,0-6.6,0-10c0-3.3,2-5.2,5.3-5.3
		c3.1,0,6.3,0,9.4,0C14.8,11.3,14.8,11.3,15,11.3z M17,21.5c0.9-0.8,1.7-1.4,2.3-2.1c0.7-0.6,1.4-0.9,2.3-0.9c4.3,0,8.5,0,12.8,0
		c2,0,3.1-1.1,3.2-3.2c0-3.4,0-6.8,0-10.2c0-2.1-1.1-3.2-3.2-3.2C29.7,2,25,2,20.2,2C18.1,2,17,3.1,17,5.2c0,5.1,0,10.3,0,15.4
		C17,20.8,17,21,17,21.5z"/>
	<path fill="#0B0F19" d="M10.6,22.4c-0.3-0.4-0.7-0.7-0.8-1.1c-0.1-0.6,0.5-1,1-0.9c0.4,0.1,0.9,0.6,0.9,0.9c0,0.4-0.5,0.7-0.8,1.1
		C10.9,22.4,10.7,22.4,10.6,22.4z"/>
	<path fill="#0B0F19" d="M8.4,21c-0.1,0.9-0.4,1.4-1,1.2c-0.4-0.1-0.9-0.5-1-0.9c-0.1-0.6,0.4-1,0.9-1C7.8,20.4,8.1,20.9,8.4,21z"/>
	<path fill="#0B0F19" d="M27.4,5.6c1.2,0,2.1,0.6,2.6,1.8c0.5,1.1,0.2,2.1-0.6,3c-0.5,0.6-1,1.3-1.6,1.8c-0.2,0.2-0.7,0.4-1,0.3
		c-0.3-0.1-0.7-0.6-0.7-0.8c0.1-0.6,0.4-1.2,0.8-1.7c0.2-0.4,0.7-0.6,1-1c0.4-0.4,0.5-0.9,0-1.3c-0.5-0.4-1-0.3-1.3,0.3
		c-0.1,0.2-0.1,0.6-0.3,0.7C26,9,25.6,9.4,25.2,9.4c-0.5,0-0.8-0.5-0.8-1.1C24.4,6.8,25.8,5.6,27.4,5.6z"/>
	<path fill="#0B0F19" d="M26.9,13.4c0.8,0.1,1.1,0.5,1.2,1c0,0.6-0.3,1-0.9,1c-0.6,0-1.1-0.4-1-0.9C26.2,14.1,26.6,13.8,26.9,13.4z"
		/>
</g>
</svg>
