<?xml version="1.0" encoding="utf-8"?>
<!-- Generator: Adobe Illustrator 18.0.0, SVG Export Plug-In . SVG Version: 6.00 Build 0)  -->
<!DOCTYPE svg PUBLIC "-//W3C//DTD SVG 1.1//EN" "http://www.w3.org/Graphics/SVG/1.1/DTD/svg11.dtd">
<svg version="1.1" id="Layer_1" xmlns="http://www.w3.org/2000/svg" xmlns:xlink="http://www.w3.org/1999/xlink" x="0px" y="0px"
	 width="10.3px" height="6.5px" viewBox="0 0 10.3 6.5" enable-background="new 0 0 10.3 6.5" xml:space="preserve">
<g>
	<path fill="#FFFFFF" d="M7.5,5.5c-0.1,0-0.1,0-0.2,0c-1.1,0-2.1,0-3.2,0c-0.1,0-0.2,0-0.2,0.2c-0.1,0.5-0.5,0.9-1,0.9
		c-0.5,0-0.9-0.3-1-0.9c0,0,0-0.1,0-0.2c-0.2,0-0.4,0-0.6,0C0.8,5.5,0.7,5.4,0.7,5c0,0,0-0.1,0-0.2c-0.2,0-0.3,0-0.5,0
		C0.1,4.8,0.1,4.7,0,4.7c0.1-0.1,0.1-0.2,0.2-0.2c0.5,0,1,0,1.4,0c0.1,0,0.1,0.1,0.2,0.2C1.8,4.7,1.7,4.8,1.7,4.8
		c-0.2,0-0.4,0-0.6,0C1,4.9,1,5,1,5.2c0.3,0,0.5,0,0.8,0c0,0,0.1-0.1,0.1-0.1c0.4-0.8,1.5-0.8,1.8,0c0,0.1,0.1,0.1,0.2,0.1
		c1,0,2.1,0,3.1,0c0,0,0,0,0.1,0c0-0.4,0-0.7,0-1.1c0-0.1,0.1-0.1,0.1-0.2c0,0,0.1,0,0.2,0.1c0,0,0,0.1,0,0.2c0,0.3,0,0.6,0,0.8
		c0,0.1,0,0.1,0.1,0.2C7.6,5.1,7.6,5,7.7,5c0.4-0.6,1.3-0.7,1.7,0c0.2,0.3,0.2,0.3,0.5,0.2c0-0.2,0-0.4,0-0.7c-0.1,0-0.1,0-0.2,0
		c-0.4,0-0.7-0.6-0.5-0.9c0-0.1,0.1-0.1,0.2-0.1c0.1,0,0.3,0,0.4,0C9.8,3.2,9.6,3.1,9.4,3.1c-0.6,0-1.3,0-1.9,0c0,0,0,0,0,0
		c0,0.1,0,0.3-0.2,0.3c-0.2,0-0.2-0.2-0.2-0.3c0-0.8,0-1.7,0-2.5c0-0.1,0-0.2,0-0.3c-2.1,0-4.1,0-6.2,0c0,0.1,0,0.2,0,0.2
		c0,0.8,0,1.7,0,2.5c0,0.1,0,0.1,0,0.2c0,0.1-0.1,0.1-0.2,0.1c0,0-0.1-0.1-0.1-0.1c0-0.1,0-0.1,0-0.2c0-0.9,0-1.7,0-2.6
		C0.7,0.1,0.8,0,1.2,0C3.1,0,5,0,7,0c0.4,0,0.5,0.1,0.5,0.5c0,0,0,0.1,0,0.2c0.4,0,0.7,0,1.1,0c0.5,0,0.8,0.3,0.7,0.8
		C9.3,1.9,9.4,2.3,9.5,2.6c0,0.1,0.1,0.2,0.2,0.2C10,3,10.3,3.2,10.3,3.6c0,0.5,0,1.1,0,1.6c0,0.2-0.1,0.3-0.3,0.3
		c-0.1,0-0.3,0-0.4,0C9.4,6.2,9,6.6,8.5,6.5C8,6.5,7.6,6.1,7.5,5.5z M9.2,2.8c0-0.2-0.1-0.4-0.1-0.6C8.9,1.7,8.9,1.7,8.5,1.7
		c-0.3,0-0.6,0-0.9,0c0,0.4,0,0.7,0,1C8.1,2.8,8.6,2.8,9.2,2.8z M3.6,5.5c0-0.4-0.3-0.7-0.7-0.7c-0.4,0-0.7,0.3-0.7,0.7
		c0,0.4,0.3,0.7,0.7,0.7C3.3,6.2,3.6,5.9,3.6,5.5z M7.9,5.5c0,0.4,0.3,0.7,0.7,0.7c0.4,0,0.7-0.3,0.7-0.7c0-0.4-0.3-0.7-0.7-0.7
		C8.2,4.8,7.9,5.1,7.9,5.5z M7.5,1.4c0.5,0,1,0,1.5,0c0-0.2-0.1-0.3-0.3-0.3C8.4,1,8,1,7.5,1C7.5,1.2,7.5,1.3,7.5,1.4z M9.6,3.8
		c0,0.3,0,0.4,0.3,0.3c0-0.1,0-0.2,0-0.3C9.8,3.8,9.7,3.8,9.6,3.8z"/>
	<path fill="#FFFFFF" d="M3.9,3.1c0.4-0.4,0.9-0.9,1.3-1.3c0,0,0.1-0.1,0.1-0.1c0.1,0,0.2,0,0.2,0c0,0.1,0,0.2,0,0.3
		c-0.5,0.5-1,1-1.5,1.5C4,3.5,3.9,3.4,3.8,3.3C3.5,3.1,3.2,2.8,3,2.6c0-0.1,0-0.2,0-0.3c0.1,0,0.2,0,0.3,0C3.5,2.6,3.7,2.8,3.9,3.1z
		"/>
	<path fill="#FFFFFF" d="M5.5,4.8c-0.4,0-0.7,0-1.1,0c-0.1,0-0.3,0-0.2-0.2c0-0.1,0.1-0.1,0.2-0.1c0.7,0,1.5,0,2.2,0
		c0.1,0,0.2,0.1,0.2,0.2C6.7,4.7,6.7,4.8,6.6,4.8C6.2,4.8,5.8,4.8,5.5,4.8z"/>
	<path fill="#FFFFFF" d="M1.5,4.1c-0.3,0-0.6,0-0.9,0C0.5,4.1,0.4,4,0.4,4c0-0.1,0.1-0.2,0.2-0.2c0.6,0,1.3,0,1.9,0
		c0.1,0,0.2,0,0.2,0.2c0,0.1-0.1,0.1-0.2,0.1C2.2,4.1,1.8,4.1,1.5,4.1z"/>
	<path fill="#FFFFFF" d="M3.2,5.5c0,0.2-0.2,0.3-0.3,0.3c-0.2,0-0.3-0.2-0.3-0.3c0-0.2,0.2-0.3,0.3-0.3C3.1,5.2,3.2,5.3,3.2,5.5z"/>
	<path fill="#FFFFFF" d="M8.2,5.5c0-0.2,0.1-0.3,0.3-0.3c0.2,0,0.3,0.2,0.3,0.3c0,0.2-0.2,0.3-0.3,0.3C8.4,5.8,8.2,5.7,8.2,5.5z"/>
</g>
</svg>
