<?xml version="1.0" encoding="utf-8"?>
<!-- Generator: Adobe Illustrator 18.0.0, SVG Export Plug-In . SVG Version: 6.00 Build 0)  -->
<!DOCTYPE svg PUBLIC "-//W3C//DTD SVG 1.1//EN" "http://www.w3.org/Graphics/SVG/1.1/DTD/svg11.dtd">
<svg version="1.1" id="Layer_1" xmlns="http://www.w3.org/2000/svg" xmlns:xlink="http://www.w3.org/1999/xlink" x="0px" y="0px"
	 width="9.2px" height="7.8px" viewBox="0 0 9.2 7.8" enable-background="new 0 0 9.2 7.8" xml:space="preserve">
<path fill="#FFFFFF" d="M8.9,7.6c0-0.5,0-0.9,0-1.4c-0.3,0-0.7,0-1,0c-0.1,0-0.1,0-0.2,0C7.7,6.1,7.7,6.1,7.6,6
	c0.1,0,0.1-0.1,0.2-0.1c0.3,0,0.6,0,0.9,0c0.1,0,0.2,0,0.3,0C9,5.4,8.8,5.2,8.4,5.2c-2.5,0-5,0-7.6,0c-0.4,0-0.6,0.2-0.5,0.7
	c0.1,0,0.2,0,0.2,0c2.2,0,4.3,0,6.5,0c0.1,0,0.3-0.1,0.3,0.1c0,0.2-0.2,0.1-0.3,0.1c-2.2,0-4.3,0-6.5,0c-0.1,0-0.2,0-0.3,0
	c0,0.5,0,0.9,0,1.4c0.2,0,0.3,0,0.5,0c0.4,0,0.8,0,1.2,0c0.1,0,0.2,0.1,0.2,0.1c0,0.1-0.1,0.1-0.2,0.1c-0.6,0-1.2,0-1.8,0
	C0.1,7.8,0,7.8,0,7.6C0,7,0,6.4,0,5.9c0-0.6,0.1-0.8,0.7-1c0-0.4,0-0.8,0-1.2c0-0.1,0-0.2,0-0.3c0-0.3,0.2-0.5,0.5-0.5
	c0.3,0,0.6,0,0.9,0c0.1,0,0.1,0.1,0.2,0.1C2.2,3,2.1,3.1,2.1,3.1c-0.2,0-0.5,0-0.7,0C1.1,3.1,1,3.2,1,3.5c0,0.5,0,0.9,0,1.4
	c0.2,0,0.4,0,0.6,0c0-0.1,0-0.2,0-0.3C1.6,4.2,1.8,4,2.2,4c0.4,0,0.9,0,1.3,0c0.4,0,0.6,0.2,0.7,0.6c0,0.1,0,0.2,0,0.3
	c0.3,0,0.6,0,0.9,0c0-0.1,0-0.2,0-0.3C5.1,4.2,5.3,4,5.7,4C6.1,4,6.6,4,7,4c0.4,0,0.6,0.2,0.7,0.7c0,0.1,0,0.1,0,0.2
	c0.2,0,0.4,0,0.6,0c0,0,0-0.1,0-0.1c0-0.4,0-0.9,0-1.3c0-0.3-0.1-0.4-0.4-0.4c-0.7,0-1.4,0-2.1,0c-1,0-2,0-3,0c0,0-0.1,0-0.1,0
	C2.6,3,2.6,3,2.5,2.9c0.1,0,0.1-0.1,0.2-0.1c0,0,0.1,0,0.1,0c1.7,0,3.4,0,5,0c0.3,0,0.5,0,0.6,0.3c0.1,0.1,0.1,0.3,0.1,0.4
	c0,0.4,0,0.8,0,1.3c0,0.1,0,0.2,0.1,0.2C9,5.1,9.2,5.3,9.2,5.7c0,0.6,0,1.3,0,1.9c0,0.2-0.1,0.3-0.3,0.3c-2.1,0-4.1,0-6.2,0
	c-0.1,0-0.2,0-0.2-0.1c0-0.2,0.1-0.1,0.2-0.1c2,0,3.9,0,5.9,0C8.8,7.6,8.8,7.6,8.9,7.6z M3.9,4.9c0-0.1,0-0.2,0-0.3
	c0-0.2-0.1-0.3-0.3-0.3c-0.5,0-1,0-1.4,0C2,4.3,1.8,4.4,1.8,4.6c0,0.1,0,0.2,0,0.3C2.5,4.9,3.2,4.9,3.9,4.9z M5.3,4.9
	c0.7,0,1.4,0,2.1,0c0-0.1,0-0.2,0-0.3c0-0.2-0.1-0.3-0.3-0.3c-0.5,0-0.9,0-1.4,0c-0.2,0-0.3,0.1-0.3,0.3C5.3,4.7,5.3,4.8,5.3,4.9z"
	/>
<path fill="#FFFFFF" d="M6,0.3c-0.3,0-0.5,0-0.7,0c-0.1,0-0.2-0.1-0.2-0.1C5,0,5.2,0,5.3,0c0.3,0,0.6,0,0.9,0c0.1,0,0.2,0.1,0.3,0.1
	c0,0.1-0.1,0.2-0.1,0.2C6,0.6,5.7,0.9,5.4,1.3c0.3,0,0.5,0,0.8,0c0.1,0,0.2,0,0.2,0.1c0,0.1-0.1,0.1-0.2,0.1c-0.3,0-0.7,0-1,0
	C5.1,1.5,5,1.5,5,1.5c0-0.1,0-0.2,0.1-0.2C5.4,0.9,5.6,0.6,6,0.3z"/>
<path fill="#FFFFFF" d="M3.8,2.1c0.2,0,0.3,0,0.4,0c0.1,0,0.1,0.1,0.2,0.1c0,0-0.1,0.1-0.1,0.1c-0.2,0-0.5,0-0.7,0
	c0,0-0.1,0-0.1-0.1c0,0,0-0.1,0-0.2c0.1-0.2,0.3-0.3,0.5-0.5c-0.1,0-0.2,0-0.3,0c-0.1,0-0.1-0.1-0.2-0.1c0.1,0,0.1-0.1,0.2-0.1
	c0.2,0,0.4,0,0.6,0c0.1,0,0.1,0,0.2,0.1c0,0,0,0.1-0.1,0.2C4.2,1.7,4,1.9,3.8,2.1z"/>
</svg>
